<svg enable-background="new 0 0 415 494.3" height="345.167532" viewBox="0 0 415 494.3" width="289.714387" xmlns="http://www.w3.org/2000/svg"><path d="m411.8 383.6v-380.4h-408.6v380.4l121.6 107.5h166.7z" fill="#fff"/><path d="m292.8 494.3h-169.2l-123.6-109.3v-385h415v385zm-166.7-6.3h164.2l118.2-105.7v-376h-402v375.9z" fill="#231f20"/><path d="m63.9 115.9 18.4 23.6h-36.8zm-31.9 40.8 8.7-11.3h46.3l8.7 11.3h12.5l-38-46.1h-12.1l-37.3 46.1z" fill="#231f20"/><path d="m136.4 110.6v39.7h49.7v-39.7h11.4v35.2c0 4.2-1.1 7.1-3.4 8.6s-6.4 2.3-12.7 2.3h-40.4c-6.2 0-10.4-.8-12.6-2.3s-3.3-4.4-3.4-8.6v-35.3h11.4z" fill="#231f20"/><path d="m291.2 116.8h-48.2v13h42.9c6.1 0 10.3.8 12.6 2.3s3.4 4.3 3.4 8.5v5.2c0 4.2-1.1 7.1-3.3 8.6s-6.5 2.3-12.7 2.3h-39.8c-6.2 0-10.4-.8-12.7-2.3-2.2-1.5-3.4-4.4-3.4-8.6v-1.3l10.5-1.7v7.5h51v-13.9h-43c-6.2 0-10.5-.8-12.6-2.3s-3.3-4.4-3.3-8.6v-4c0-4.2 1.1-7.1 3.3-8.6s6.4-2.3 12.6-2.3h36.3c6.1 0 10.3.8 12.6 2.2s3.5 4.1 3.5 7.9v1l-9.9 1.9z" fill="#231f20"/><path d="m362.9 116.8v39.9h-11.3v-39.9h-31.3v-6.2h74v6.2z" fill="#231f20"/><path d="m18.8 77.4v19.8h377.4v-19.8s-87.5-.5-164.8-59.5h-50c0 .1-61.1 59.5-162.6 59.5z" fill="#168141"/><path d="m114.4 188.2v156.4l83.9-20.7v-113.2z" fill="#168141"/><path d="m300.6 188.2v156.4l-83.9-20.7v-113.2z" fill="#168141"/><path d="m281.2 475.5h-147.4l-.4-.4-111.5-96.7v-.7l.3-191h77v161.6l63.5 55.2h86.4l64.1-55.6v-161.1h79.9v191.6l-.5.4zm-146.2-3h145.1l110-95.5v-187.3h-73.9v159.5l-66 57.3h-88.6l-.4-.4-65-56.4v-160h-71l-.3 187.4z" fill="#d27528"/><g fill="#231f20"><path d="m175.9 369.2h-5.8v-16.2c-2.3 1.5-4.9 2.6-7.6 3.3v-3.9c1.8-.5 3.4-1.2 5-2.1 1.6-.8 2.8-2 3.7-3.6h4.8z"/><path d="m196.7 357.5c-1.7 1.3-4 1.3-5.7 0-.8-.8-1.3-2-1.2-3.2-.3-1.9 1.1-3.7 3-4h.8c1.1 0 2.2.4 3 1.1.9.8 1.4 2 1.3 3.2.1 1.1-.4 2.2-1.2 2.9zm-9.1 10.7c1.7 1 3.7 1.5 5.7 1.4 2.9.1 5.8-.8 8-2.7 2.1-1.8 3.1-4.8 3.1-8.9 0-4-1-6.9-3-8.7-2.1-1.8-4.8-2.7-7.6-2.6-2.5-.1-5 .6-7 2.1-1.8 1.3-2.8 3.3-2.7 5.5 0 2.1.9 4.1 2.6 5.3 1.8 1.4 3.9 2.1 6.2 2 2 .1 4-.6 5.5-1.9-.2 2.6-.8 4.3-1.6 5.1s-1.9 1.2-3 1.2c-.8 0-1.6-.2-2.3-.6-.6-.4-1-1.1-1.1-1.9l-5.6.5c.3 1.7 1.3 3.3 2.8 4.2z"/><path d="m220.4 357.5c-1.7 1.3-4 1.3-5.7 0-.8-.8-1.3-2-1.2-3.2-.3-1.9 1.1-3.7 3-4h.8c1.1 0 2.2.4 3 1.1.9.8 1.4 2 1.3 3.2 0 1.1-.4 2.2-1.2 2.9zm-9.1 10.7c1.7 1 3.7 1.5 5.7 1.4 2.9.1 5.8-.8 8-2.7 2-1.8 3.1-4.8 3.1-8.9 0-4-1-6.9-3-8.7-2.1-1.8-4.8-2.7-7.6-2.6-2.5-.1-5 .6-7 2.1-1.8 1.3-2.8 3.3-2.8 5.5 0 2.1.9 4.1 2.6 5.3 1.8 1.4 3.9 2.1 6.2 2 2 .1 4-.6 5.5-1.9-.2 2.6-.8 4.3-1.6 5.1s-1.9 1.2-3 1.2c-.8 0-1.6-.2-2.3-.6-.6-.4-1-1.1-1.1-1.9l-5.6.5c.3 1.7 1.4 3.3 2.9 4.2z"/><path d="m232 363.5 5.8-.4c.1.9.7 1.8 1.5 2.3.8.6 1.8.9 2.8.8 1.1 0 2.2-.4 3.1-1.1.9-.9 1.3-2.1 1.3-3.3.1-1.2-.4-2.3-1.3-3.1-.9-.7-2.1-1.1-3.3-1-1.6 0-3.2.6-4.5 1.6l-4.7-.5 3-11.7h15.4v4h-11l-.9 3.8c1.3-.5 2.6-.7 4-.7 2.4-.1 4.7.7 6.6 2.1 1.7 1.2 2.7 3.3 2.7 5.4 0 1.9-.8 3.7-2.2 4.9-2 2-4.7 3-8.3 3-2.4.1-4.8-.5-6.9-1.6-1.6-.9-2.8-2.6-3.1-4.5z"/><path d="m54.8 205.9 9.3 2.1-9.3 2.1zm-9.9 9.8 25.1-6.1v-3.3l-25.1-5.9v3.3l5.7 1.3v6.1l-5.7 1.3z"/><path d="m69.9 217.3v3.1h-9.9v6h9.9v3.1h-25v-3.1h11v-6h-11v-3.1z"/><path d="m53.5 235c-1.3.1-4.8.5-4.8 3.3 0 2.1 1.9 3 3.5 3 2.1 0 2.6-1.1 3.7-3.9.6-1.5 2-4.9 7.5-4.9 2.7 0 7 1.1 7 5.5 0 3-1.9 5.7-7.6 5.8l-.2-3.1c1.3-.1 3.6-.4 3.6-2.8.1-1.3-.9-2.5-2.2-2.6-.1 0-.2 0-.3 0-1.6 0-2.3 1-3.3 3.4s-2.1 5.5-8.3 5.5c-3 0-5.6-1.2-6.6-2.5-.8-1-1.2-2.3-1.1-3.6 0-1.6.3-5.7 8.6-6.3z"/><path d="m54.8 250.7 9.3 2.1-9.3 2.1zm-9.9 9.8 25.1-6.1v-3.2l-25.1-5.9v3.3l5.7 1.3v6.1l-5.7 1.3z"/><path d="m69.9 262.2v3l-16.7 6.2h16.7v2.9h-25v-3.1l16.4-6.1h-16.4v-2.8z"/><path d="m69.9 280.6h-13.5c-3 0-4.2 0-5.4.4-1.3.3-2.2 1.4-2.2 2.7 0 2.9 3 2.9 7.3 2.9h13.8v3h-13.1c-4.5 0-7-.1-8.9-.8-2.2-.7-3.6-2.8-3.5-5.1 0-6.2 6.3-6.2 12.1-6.2h13.5z"/><path d="m69.9 292.8v3.1h-20.8v7.6h-4.2v-10.7z"/><path d="m69.9 305.8v3.1h-20.8v7.6h-4.2v-10.7z"/><path d="m54.8 322.7 9.3 2.1-9.3 2.1zm-9.9 9.8 25.1-6.1v-3.2l-25.1-5.9v3.3l5.7 1.3v6.1l-5.7 1.3z"/><path d="m69.9 334.1v3.1h-9.9v6h9.9v3.1h-25v-3.1h11v-6h-11v-3.1z"/><path d="m67.5 358.9-9.6 8.3c-2.1 1.8-3 2.6-3.5 3.6-.7 1.1-.4 2.5.7 3.3 2.5 2.1 4.6.3 7.6-2.4l9.8-8.5 2.6 2.2-9.3 8c-3.2 2.7-5 4.2-7 4.8-2.3.8-4.9.2-6.7-1.5-5.2-4.5-.7-8.4 3.4-11.9l9.5-8.2z"/><path d="m77.8 367.8 2.5 2.2-6.6 14.8 11.8-10.2 2.4 2.1-17.7 15.3-2.6-2.2 6.5-14.4-11.6 10-2.4-2z"/><path d="m90.5 378.7 2.5 2.2-17.7 15.3-2.6-2.2z"/><path d="m94.2 382 2.8 2.4-9.9 14.1 16.2-8.7 2.7 2.3-22.3 11.4-2.8-2.4z"/><path d="m107.4 393.3 9.4 8.2-3 2.6-6.9-6-3.9 3.4 6.4 5.5-3 2.6-6.4-5.5-4.8 4.1 7.1 6.1-3 2.6-9.6-8.3z"/><path d="m118.8 408.4 2 1.7c1.7 1.5 2 1.8 2.1 2.5 0 .9-.5 1.6-1.2 2.1-.8.8-1.9 1.2-3 1-.9-.5-1.8-1.1-2.5-1.8l-1.9-1.6zm-17.3 10.5 2.6 2.2 7.4-6.4.5.5c1.7 1.5 1.5 1.9-.1 6l-2 4.9 3.1 2.7 1.9-4.3c1.6-3.6 1.7-4.6 1.5-6.2.6.4 1.3.6 2 .8 2 .5 4.4-.4 6.3-2.1 1.7-1.5 3.2-3.8 2.5-5.7-.6-1.2-1.4-2.1-2.5-2.9l-5.4-4.7z"/><path d="m122.3 426.4c-.8.9-2.9 3.3-.6 5.3 1.4 1.3 3.6 1.3 5 0 1.5-1.3.9-2.3-.6-5-.8-1.5-2.6-4.7 1.3-8.1 1.9-1.7 5.9-3.5 9.6-.3 2.5 2.1 3.4 5.3-.5 8.9l-2.7-2.1c.8-.9 2.3-2.5.3-4.2-.8-.7-2.5-1.6-3.9-.3-1.1 1-.8 2.1.5 4.5s3.1 5.3-1.3 9c-1.8 1.7-4.3 2.5-6.7 2.2-1.4-.3-2.7-.9-3.8-1.9-1.4-1.2-4.6-4.3.8-9.8z"/><path d="m143.8 424.8 2.6 2.2-17.7 15.3-2.6-2.2z"/><path d="m148.7 434.2-3.8-3.3 3-2.6 10.1 8.7-3 2.6-3.8-3.3-14.7 12.8-2.5-2.1z"/><path d="m152.7 450.3 5.6-12.9 3 2.6-4 8.6 10-3.5 2.9 2.6-15 4.9-7.4 6.4-2.6-2.2z"/><path d="m199 451.2c0-3.2.9-7.5 5-7.5 4.4 0 5 4.9 5 7.4 0 6.3-3 7.5-5 7.5-1.8 0-3.4-1.1-4.1-2.7-.7-1.5-1-3.1-.9-4.7zm-3.7.1c0 5 2 11.1 8.7 11.1 6.3 0 8.7-5.5 8.7-11.2 0-6.3-2.8-11.2-8.7-11.2-5.7 0-8.8 4.4-8.7 11.3z"/><path d="m215.6 440.4h12.3v3.7h-8.7v5.1h7.5v3.7h-7.5v9.2h-3.6z"/><path d="m264.4 451.6c1 .7 3.9 2.5 6.2.5 1.2-.8 1.5-2.5.6-3.7-.2-.2-.4-.5-.6-.6-1.5-1.3-2.7-.8-5.8.5-1.7.7-5.5 2.3-9.4-1.1-1.9-1.7-4-5.1-.3-8.3 2.5-2.2 6.1-2.9 10.2.4l-2.4 2.4c-1-.7-2.9-2-4.9-.2-.8.7-1.8 2.1-.4 3.4 1.1 1 2.4.7 5.1-.5s6.1-2.6 10.4 1.1c2.2 1.9 3 4.3 2.6 5.8-.4 1.3-1.1 2.4-2.2 3.3-1.4 1.2-4.9 4-11.3-.7z"/><path d="m285.6 434.4c1.1 1.4 4.6 5.9.5 9.5-3.5 3-9.3 2-14.8-2.8-4.9-4.3-7.5-9.6-3.4-13.2 1.6-1.4 3.8-2 5.9-1.6 1.6.3 3 .8 4.4 1.7l-1.7 2.9c-2.3-1.4-4.3-1.4-5.7-.3-3.2 2.8 1.7 7 2.8 7.9 1.5 1.4 3.2 2.5 5.1 3.3 1.4.5 3 .3 4.2-.6 1.7-1.5.7-3.7-.9-5.7z"/><path d="m275.4 422 2.5-2.2 17.8 15.3-2.5 2.2z"/><path d="m280.5 417.6 9.4-8.1 3 2.6-6.9 6 3.9 3.4 6.4-5.5 3 2.6-6.3 5.4 4.8 4.1 7.1-6.1 3 2.6-9.7 8.4z"/><path d="m292.3 407.3 2.5-2.2 17 5.8-11.8-10.2 2.4-2.1 17.7 15.3-2.6 2.2-16.7-5.6 11.6 10-2.4 2.1z"/><path d="m328 397.7c1.1 1.4 4.6 5.9.5 9.5-3.4 3-9.3 2-14.8-2.8-4.9-4.3-7.5-9.6-3.4-13.2 1.6-1.4 3.8-1.9 5.9-1.5 1.6.3 3.1.9 4.4 1.7l-1.7 2.9c-2.3-1.4-4.3-1.4-5.6-.2-3.2 2.7 1.7 6.9 2.8 7.9 1.5 1.4 3.2 2.5 5.1 3.3 1.4.5 3 .3 4.2-.6 1.7-1.5.7-3.7-.9-5.7z"/><path d="m317.9 385.2 9.4-8.1 3 2.6-6.9 5.9 3.9 3.4 6.4-5.5 3 2.6-6.4 5.5 4.8 4.1 7.1-6.1 3 2.6-9.6 8.4z"/><path d="m358.3 370.9c.5 1 .4 2.2-.3 3.2-1.1 1.3-3 1-4.4.2s-2.3-2.3-2.3-3.9zm6-4c-1.3.3-2.6.6-4 .6-.4-.7-.9-1.5-3.3-3.6l-2.5 1.8c.7.6 1.4 1.3 1.9 2l-5.2-.5c-.3-2.3-.9-4-3-5.3-2.6-1.6-5.8-1.5-7.5.7-1.8 2.2-.9 4.8 1.6 6.3 1.7.9 3.6 1.4 5.6 1.4 0 2.8 1.5 5.4 4 6.7 1.6 1 6.5 3 9.6-.9 1.2-1.4 1.5-3.3.8-5 1.4-.1 2.7-.3 4.1-.7zm-18.1-.1c-.8 0-1.5-.2-2.2-.5s-1-1.2-.7-1.9c0-.1.1-.2.2-.3.8-.8 2-.9 2.9-.2.6.3 1 .9 1.2 1.5.1.5.2 1 .3 1.4z"/><path d="m349.3 344.1v4.6h-4.3v-12.4h4.2v4.6h20.8v3.1h-20.7z"/><path d="m345 334.3v-11.6h4.2v8.4h5.6v-7.8h4.2v7.8h6.8v-8.7h4.2v11.8z"/><path d="m362.4 306.8c2 .3 8.1 1.4 8.1 6.5 0 4.2-4.9 7.1-12.8 7.1-7 0-13.2-2.2-13.2-7.3 0-2 1.1-3.8 2.9-4.8 1.4-.8 2.9-1.3 4.5-1.5l1.2 3.1c-2.7.4-4.2 1.7-4.2 3.3 0 3.9 6.9 3.9 8.5 3.9 2.1.1 4.3-.2 6.3-.8 1.4-.4 2.3-1.6 2.5-3 0-2.1-2.6-3-5.3-3.4z"/><path d="m345 304.1v-3.1h9.9v-6.1h-9.9v-3.1h25.1v3.1h-11v6.1h11v3.1z"/><path d="m345 288.3v-3l16.7-6.3h-16.7v-2.9h25.1v3.1l-16.4 6.2h16.4v2.9z"/><path d="m357.6 270.2c-3.7 0-8.6-.7-8.6-4.3 0-3.8 5.7-4.3 8.5-4.3 7.2 0 8.7 2.6 8.7 4.3 0 1.9-1.7 3-3.2 3.5-1.7.6-3.6.8-5.4.8zm.1 3.2c5.8 0 12.8-1.7 12.8-7.6 0-5.5-6.4-7.5-12.9-7.5-7.3 0-13 2.5-13 7.5 0 4.9 5.1 7.6 13.1 7.6z"/><path d="m345 255.8v-3.1h20.8v-7.8h4.2v11h-25z"/><path d="m357.6 240c-3.7 0-8.6-.7-8.6-4.3 0-3.8 5.7-4.3 8.5-4.3 7.2 0 8.7 2.6 8.7 4.3 0 1.9-1.7 3-3.2 3.5-1.7.6-3.6.9-5.4.8zm.1 3.3c5.8 0 12.8-1.7 12.8-7.5 0-5.5-6.4-7.5-12.9-7.5-7.3 0-13 2.5-13 7.5 0 4.7 5.1 7.4 13.1 7.5z"/><path d="m356.7 218.6v-6.8h10c1.4.9 3.9 3.5 3.9 6.6 0 5.6-6.5 7.9-13 7.9-6.1 0-12.9-2.1-12.9-7.7 0-2.5 1.2-5.8 7.4-6.6l1 3.1c-3.5.6-4 2.5-4 3.5 0 1.3.7 2.7 2.8 3.6 1.8.6 3.7.9 5.5.8 3.7 0 8.9-.8 8.9-4.5 0-1.8-1.7-3.3-2.1-3.7h-3.2v3.6z"/><path d="m359.6 204.7-14.5 5.7v-3.7l9.9-3.6-9.9-3.6v-3.6l14.6 5.7h10.5v3.1z"/></g></svg>